<?xml version="1.0" encoding="utf-8"?>
<!-- Generator: Adobe Illustrator 21.1.0, SVG Export Plug-In . SVG Version: 6.00 Build 0)  -->
<svg version="1.1" xmlns="http://www.w3.org/2000/svg" xmlns:xlink="http://www.w3.org/1999/xlink" x="0px" y="0px"
	 viewBox="0 0 1224.5 236.4" style="enable-background:new 0 0 1224.5 236.4;" xml:space="preserve">
<style type="text/css">
	.st0{display:none;}
	.st1{display:inline;fill:#EDB458;}
	.st2{display:inline;}
	.st3{fill:#477AE2;}
	.st4{display:none;fill:#477AE2;}
	.st5{fill:#231F20;}
	.st6{fill:none;}
	.st7{font-family:'SavoyeLetPlain';}
	.st8{font-size:138px;}
	.st9{fill:none;stroke:#231F20;stroke-width:12;stroke-miterlimit:10;}
	.st10{fill:#EDB458;}
	.st11{fill:#367ADD;}
	.st12{font-family:'BrixSansLight-Italic';}
	.st13{font-size:219px;}
	.st14{letter-spacing:-22;}
	.st15{fill:none;stroke:#000000;stroke-width:7;stroke-miterlimit:10;}
	.st16{fill:none;stroke:#477AE2;stroke-width:7;stroke-linecap:round;stroke-miterlimit:10;}
	.st17{display:inline;fill:#636263;}
	.st18{fill:#2196F3;stroke:#2196F3;stroke-width:5;stroke-miterlimit:10;}
	.st19{display:none;fill:#2196F3;}
	.st20{fill:#FF3B30;}
	.st21{fill:none;stroke:#FF3B30;stroke-width:5;stroke-linecap:round;stroke-miterlimit:10;}
	.st22{fill:none;stroke:#FFB3B3;stroke-width:5;stroke-linecap:round;stroke-miterlimit:10;}
	.st23{fill:#2196F3;}
	.st24{fill:url(#SVGID_1_);}
	.st25{fill:url(#SVGID_2_);}
	.st26{fill:url(#SVGID_3_);}
	.st27{fill:url(#SVGID_4_);}
	.st28{fill:url(#SVGID_5_);}
</style>
<g id="Layer_1" class="st0">
	<g>
		<path class="st1" d="M765.1,276.8c-13.2-63.9-67.6-108.2-131.4-108.2c-9,0-17.9,1.1-26.9,2.6c-35.4,6.8-65.5,26.9-85.5,57
			c-20,30.1-27.5,66-20,101.9c4.7,23.8,14.3,46,23.2,64.4c17.4,37,40.1,74.4,71.3,118.8c6.8,9.5,13.7,19,21.1,28.5c0,0,0,0,0,0.5
			l1.6,2.1l0.5,0.5c3.7,4.7,9,6.8,14.3,6.8c3.7,0,10-1.6,15.8-8.5c21.1-27.5,39.1-54.4,56-81.3c19-30.6,42.2-71.3,56.5-116.7
			C768.7,322.1,769.8,298.9,765.1,276.8z M742.3,339.6c-13.7,43.3-36.4,82.4-54.4,111.9c-16.4,26.4-34.3,52.3-54.4,79.2
			c0,0,0,0.5-0.5,0.5l-0.5-1.1c0,0,0-0.5-0.5-0.5l0,0c-6.8-9.5-13.7-19-20.6-28.5c-30.6-43.3-52.8-79.7-69.7-115.6
			c-8.5-17.4-17.4-38-21.7-60.2c-6.4-30.6,0-61.8,16.9-87.1c16.9-25.3,43.3-42.8,73.4-48.6c7.9-1.6,15.3-2.1,23.2-2.1
			c54.9,0,100.8,38,112.4,92.9C750.3,299.5,748.7,319.5,742.3,339.6z M632,239.3c-34.3,0-62.3,28-62.3,62.3s28,62.3,62.3,62.3
			c34.3,0,62.3-28,62.3-62.3S666.3,239.3,632,239.3z M632,344.3c-23.8,0-42.8-19-42.8-42.8s19-42.8,42.8-42.8s42.8,19,42.8,42.8
			S655.8,344.3,632,344.3z"/>
	</g>
	<g class="st2">
		<g>
			<path class="st3" d="M383.7,381.9c0-11.6,1.8-22,5.3-31.3c3.5-9.3,8.9-16.8,16-22.5c7.1-5.7,15.4-8.5,24.9-8.5
				c9.7,0,17.2,2.8,22.4,8.5c5.2,5.7,7.8,13.3,7.8,22.7c0,5.5-1.4,12.5-4.3,21h-59.3c-0.5,3.7-0.8,7-0.8,10.1c0,16,7.3,24,21.9,24
				c4.7,0,9.4-0.9,14.2-2.8c4.8-1.9,9.1-4.6,12.8-8.3l4.9,9.3c-3.3,3.5-7.9,6.5-13.8,8.9c-5.9,2.4-12,3.6-18.4,3.6
				c-6.3,0-11.7-0.9-16.2-2.8c-4.5-1.9-8-4.5-10.4-7.8c-2.4-3.4-4.2-7-5.3-10.9C384.3,391.2,383.7,386.8,383.7,381.9z M398.2,361.6
				h48.5l0.4-1.2c0.3-0.9,0.5-1.6,0.6-2.2c0.2-0.6,0.3-1.6,0.5-2.9s0.3-2.7,0.3-4.3c0-6.1-1.6-11.2-4.9-15
				c-3.3-3.9-7.9-5.8-13.9-5.8c-8.5,0-15.3,2.9-20.5,8.7C404,344.6,400.3,352.2,398.2,361.6z"/>
			<path class="st3" d="M449.8,401.2l8.6-7.4c1.2,1.9,2.3,3.4,3.3,4.6c1,1.2,2.4,2.5,4.2,3.9c1.8,1.4,4,2.4,6.6,3.1
				c2.6,0.7,5.7,1,9.1,1c7.3,0,13.2-1.6,17.8-4.7c4.5-3.2,6.8-7.6,6.8-13.4c0-3.4-1.2-6.1-3.7-8.2c-2.5-2.1-6.3-3.9-11.5-5.4l-9.6-3
				c-13.1-4.1-19.6-11.4-19.6-21.9c0-3.7,0.7-7.3,2-10.8c1.4-3.5,3.4-6.7,6.1-9.6c2.7-3,6.4-5.3,11.1-7.1c4.7-1.8,10-2.7,16.1-2.7
				c6.8,0,12.8,1.3,18,3.8c5.1,2.6,9,5.6,11.4,9l-8.6,7.3c-4.4-6.6-11.6-10-21.4-10c-7.5,0-13.1,1.8-16.7,5.5
				c-3.7,3.6-5.5,8.1-5.5,13.4c0,6.1,4.2,10.4,12.5,12.9l9.4,2.8c7.8,2.4,13.5,5.4,17.2,9c3.6,3.6,5.4,8.3,5.4,14.2
				c0,8.6-3.3,15.6-10,21c-6.7,5.4-15.8,8.1-27.5,8.1c-4.4,0-8.4-0.5-12.1-1.4s-6.8-2.2-9.2-3.8c-2.5-1.6-4.5-3.2-6.1-4.9
				C452.2,404.9,450.8,403.1,449.8,401.2z"/>
			<path class="st3" d="M519.7,381.9c0-11.6,1.8-22,5.3-31.3c3.5-9.3,8.9-16.8,16-22.5c7.1-5.7,15.4-8.5,24.9-8.5
				c9.7,0,17.2,2.8,22.4,8.5c5.2,5.7,7.8,13.3,7.8,22.7c0,5.5-1.4,12.5-4.3,21h-59.3c-0.5,3.7-0.8,7-0.8,10.1c0,16,7.3,24,21.9,24
				c4.7,0,9.4-0.9,14.2-2.8c4.8-1.9,9.1-4.6,12.8-8.3l4.9,9.3c-3.3,3.5-7.9,6.5-13.8,8.9c-5.9,2.4-12,3.6-18.4,3.6
				c-6.3,0-11.7-0.9-16.2-2.8c-4.5-1.9-8-4.5-10.4-7.8c-2.4-3.4-4.2-7-5.3-10.9C520.3,391.2,519.7,386.8,519.7,381.9z M534.2,361.6
				h48.5l0.4-1.2c0.3-0.9,0.5-1.6,0.6-2.2c0.2-0.6,0.3-1.6,0.5-2.9s0.3-2.7,0.3-4.3c0-6.1-1.6-11.2-4.9-15
				c-3.3-3.9-7.9-5.8-13.9-5.8c-8.5,0-15.3,2.9-20.5,8.7C540,344.6,536.3,352.2,534.2,361.6z"/>
			<path class="st3" d="M649.8,320.1c-2.5-0.4-5.4-0.5-8.8-0.5c-0.5,0-0.9,0-1.4,0c-10.2,0.4-18.5,5.8-24.9,16.1l2.4-13.7h-11.7
				l-16.5,93H601l10.7-62.2c7.7-13.2,16.4-20.2,26.3-20.7l3.2-3.4l0,0.1l0,0L649.8,320.1L649.8,320.1z"/>
			<path class="st3" d="M641,319.6c-0.5,0-0.9,0-1.4,0l1.7,9.1l0,0.1l0,0l8.4-8.7C647.3,319.8,644.4,319.6,641,319.6z M652.9,322.7
				l13.4,80.2l41.6-80.8h13.9l-49.6,93h-14.7l-15.3-81.5l1.2-1.3l8.9-9.1L652.9,322.7z"/>
			<path class="st3" d="M705.5,380.1c0-18.9,4.1-33.7,12.2-44.4s19.6-16.1,34.2-16.1c5.9,0,11,1.1,15.4,3.3c4.3,2.2,7.6,5,9.9,8.4
				l1.7-9.7h12l-16.2,93.1h-12l1.6-9c-7.7,7.3-16.7,11-27.1,11c-10.6,0-18.6-3.2-23.9-9.5C708.1,400.8,705.5,391.8,705.5,380.1z
				 M717.9,379.3c0,17.5,7.2,26.2,21.7,26.2c5.8,0,11-1.3,15.6-3.9c4.6-2.6,8.4-5.9,11.4-9.8l8.2-47.1c-1.5-3.8-4.1-7-7.7-9.8
				c-3.6-2.8-8.3-4.1-14.2-4.1c-11.6,0-20.3,4.3-26.3,13S717.9,364.3,717.9,379.3z"/>
			<path class="st3" d="M791,332.3l1.4-8.8l17.4-2l4.1-23.6l12.9-2.5l-4.7,26.1h25.3l-1.8,10.8h-25.4L810,389.6
				c-0.4,1.9-0.6,3.7-0.6,5.4c0,2.7,0.5,4.9,1.5,6.6c1.6,2.7,4.6,4,9.1,4c3.9,0,8.4-1.2,13.5-3.7l0.2,10.6
				c-5.6,2.9-11.2,4.3-16.7,4.3c-13.3,0-19.9-6-19.9-17.9c0-2.5,0.3-5.3,0.9-8.4l10.1-58H791z"/>
			<path class="st3" d="M833.2,414.6l16.5-93.1h12.1l-16.5,93.1H833.2z M852,288.9c0-3.8,1.1-6.7,3.2-8.7c2.1-2,4.8-3,8.2-3
				c2.3,0,4.2,0.7,5.7,2.1c1.5,1.4,2.3,3.4,2.3,5.9c0,3.7-1.1,6.5-3.4,8.5c-2.3,1.9-5,2.9-8,2.9c-2.4,0-4.3-0.6-5.7-1.9
				C852.8,293.3,852,291.4,852,288.9z"/>
			<path class="st4" d="M856.8,379.2c0-6,0.6-11.8,1.8-17.4c1.2-5.6,3.1-11,5.6-16.1c2.6-5.1,5.7-9.6,9.3-13.5
				c3.7-3.9,8.1-6.9,13.4-9.2c5.3-2.3,11.1-3.4,17.4-3.4c11.4,0,19.8,3.3,25.3,10c5.5,6.7,8.2,15.7,8.2,27c0,7.4-0.9,14.5-2.8,21.4
				c-1.9,6.9-4.7,13.3-8.4,19.1c-3.7,5.8-8.8,10.5-15.1,14.1c-6.3,3.6-13.5,5.3-21.6,5.3c-11,0-19.2-3.4-24.8-10.2
				C859.6,399.7,856.8,390.6,856.8,379.2z M869.3,379.2c0,8.2,1.7,14.6,5.2,19.3c3.5,4.7,8.7,7,15.8,7c4.9,0,9.4-1,13.5-3
				c4.1-2,7.4-4.7,10-7.9c2.6-3.3,4.8-7,6.6-11.4c1.8-4.3,3.1-8.7,3.8-13.1c0.8-4.4,1.1-8.9,1.1-13.4c0-17.3-7.1-25.9-21.4-25.9
				c-4.7,0-9.1,1-13,2.9c-4,1.9-7.2,4.5-9.9,7.7c-2.6,3.2-4.8,6.9-6.6,11.1c-1.8,4.2-3.1,8.6-3.9,13.1
				C869.7,369.9,869.3,374.5,869.3,379.2z"/>
			<path class="st3" d="M932.9,414.6l16.6-93.1h11.9l-1.8,10.3c3.6-3.7,8.1-6.6,13.5-8.9s11.1-3.4,16.9-3.4c11.2,0,18.9,3,23.2,8.9
				c2.9,4,4.3,9.4,4.2,16.3c0,3.4-0.3,7.1-1,11.1l-10.7,58.8H994l10.3-58.8c0.6-3.4,0.9-6.5,0.9-9.2c0.1-4.4-0.7-7.7-2.3-10.1
				c-2.5-3.8-7.9-5.8-16.3-5.8c-5.7,0-11.1,1.2-16.1,3.5c-5,2.3-9.4,5.4-13.1,9.3l-12.5,71.1H932.9z"/>
			<path class="st3" d="M1010,401.2l8.6-7.4c1.2,1.9,2.3,3.4,3.3,4.6c1,1.2,2.4,2.5,4.2,3.9c1.8,1.4,4,2.4,6.6,3.1
				c2.6,0.7,5.7,1,9.1,1c7.3,0,13.2-1.6,17.8-4.7c4.5-3.2,6.8-7.6,6.8-13.4c0-3.4-1.2-6.1-3.7-8.2c-2.5-2.1-6.3-3.9-11.5-5.4l-9.6-3
				c-13.1-4.1-19.6-11.4-19.6-21.9c0-3.7,0.7-7.3,2-10.8c1.4-3.5,3.4-6.7,6.1-9.6c2.7-3,6.4-5.3,11.1-7.1c4.7-1.8,10-2.7,16.1-2.7
				c6.8,0,12.8,1.3,18,3.8c5.2,2.6,9,5.6,11.4,9l-8.6,7.3c-4.4-6.6-11.6-10-21.4-10c-7.5,0-13.1,1.8-16.7,5.5
				c-3.7,3.6-5.5,8.1-5.5,13.4c0,6.1,4.2,10.4,12.5,12.9l9.4,2.8c7.8,2.4,13.5,5.4,17.2,9s5.4,8.3,5.4,14.2c0,8.6-3.3,15.6-10,21
				c-6.7,5.4-15.8,8.1-27.5,8.1c-4.4,0-8.4-0.5-12.1-1.4c-3.7-0.9-6.8-2.2-9.2-3.8c-2.5-1.6-4.5-3.2-6.1-4.9
				C1012.4,404.9,1011,403.1,1010,401.2z"/>
			<polygon class="st5" points="641.3,328.8 641.3,328.8 641.3,328.8 641.3,328.8 			"/>
			<line class="st6" x1="643.5" y1="332.3" x2="642.2" y2="333.6"/>
			<line class="st6" x1="652.9" y1="322.7" x2="652.4" y2="323.2"/>
		</g>
		<text transform="matrix(1 0 0 1 296.0137 92.3378)" class="st7 st8">Reser    tions.lk</text>
		<g>
			<g id="Layer_8_20_">
				<path d="M991.2,55.6c0-21.7-17.6-39.4-39.4-39.4c-21.7,0-39.4,17.6-39.4,39.4c0,13.8,7.2,26,18,33l21.4,43.6l21.4-43.6
					C984.1,81.6,991.2,69.4,991.2,55.6z M951.9,32.6c12.7,0,23.1,10.3,23.1,23.1c0,12.7-10.3,23-23.1,23
					c-12.7,0-23.1-10.3-23.1-23.1C928.8,42.9,939.2,32.6,951.9,32.6z"/>
			</g>
		</g>
		<path class="st9" d="M852.8,115.3c15.4,23.6,45.5,30.3,72,29c30.7-1.5,62.2-11,90.1-23.3c16.4-7.2,32.1-16.1,46.8-26.3"/>
		<path class="st9" d="M373.6,90.1c14,41.9,56,72.9,101,69.9c17-1,34-5,50-11c3-1,5-3,8-4c2-1,3,0,5-1c21-11,42-22,60.7-35.7"/>
		<g>
			<g id="Shape_392_1_">
				<g>
					<polygon points="530.6,45.1 505.9,54.2 481.3,45.2 505.9,94.5 					"/>
				</g>
			</g>
		</g>
		<g>
			<g id="Shape_392_2_">
				<g>
					<polygon points="530.9,94.5 555.6,85.4 580.3,94.4 555.7,45.1 					"/>
				</g>
			</g>
		</g>
		<g>
			<g>
				<g id="XMLID_2_">
					<g>
						<path class="st10" d="M934.1-199.1l7,10c-8.6,13.4-17.7,26.7-28.3,40.4c-3.3,3.9-6.9,4.8-9,4.8c-0.8,0-1.3-0.1-2.3-0.2v-14.8
							c1,0.8,1.2,1.7,1.8,2.5l0.6,0.9c0.3,0,0.3-0.3,0.3-0.3C915.2-170.5,925-184.6,934.1-199.1z"/>
						<path class="st11" d="M897.5-165v18.8c-0.8-0.2-1.2-0.1-2.2-1.2l-1.8-2.2c-4-5.4-7.6-10.8-11.5-16.2
							c-17.6-25.1-30-46.4-39.9-67.4c-5.1-10.5-10.6-23.1-13.2-36.5c-4.2-20.4-0.2-40.7,11.2-57.8c11.4-17,28.1-28.4,48.2-32.3
							c3.3-0.6,6.2-1,9.2-1.3v10.7c-2,0.2-4.5,0.5-7.1,1c-17.1,3.3-31.4,13.2-41,27.6c-9.6,14.4-13.2,32-9.6,49.4
							c2.4,12.6,7.5,24.3,12.3,34.1c9.6,20.3,22.3,41,39.6,65.6C893.6-170,895.5-167.5,897.5-165z"/>
						<path class="st10" d="M897.5-261.9v11.2c-17-2.2-30.8-17.1-30.8-35c0-17.9,13.8-32.8,30.8-35v11.2
							c-11,2.1-19.8,11.9-19.8,23.9S886.5-264,897.5-261.9z"/>
					</g>
					<g>
					</g>
				</g>
			</g>
			<g id="XMLID_1_">
				<g>
					<path class="st11" d="M961.2-223.2l55.2,79.4h-37.6l-34.6-49.7l-7.1-10.1L904.8-250c11.3-0.4,21.3-6.2,27.5-14.9
						c4.1-5.8,6.5-12.8,6.5-20.3c0-19.4-15.7-35.2-35-35.3v-0.1v-28.9v-0.3c0.2,0,0.4,0,0.6,0c31.1,0,57.2,21.6,63.8,52.7
						c2.4,10.8,1.5,22.1-2.1,33.5c-3.3,10.5-7.6,20.5-12.1,29.9L961.2-223.2z"/>
					<path class="st11" d="M978.8-299.3c2.7,12.6,2.1,25.7-2.1,38.9c-4.2,13.3-9.7,25.8-15.5,37.2l-7.4-10.7
						c4.6-9.4,8.8-19.4,12.1-29.9c3.6-11.4,4.5-22.8,2.1-33.5c-6.6-31.1-32.6-52.7-63.8-52.7c-0.2,0-0.4,0-0.6,0v-10.8
						c0.2,0,0.4,0,0.6,0C940.5-360.7,971.4-335.6,978.8-299.3z"/>
					<path class="st10" d="M938.7-285.3c0,7.6-2.4,14.6-6.5,20.3c-6.2,8.7-16.1,14.5-27.5,14.9l-1.1-1.5v-9.6
						c9.6,0,17.8-5.6,21.6-13.7c0,0,0,0,0,0c1.5-3.2,2.3-6.6,2.3-10.3c0-13.4-10.6-24.2-23.9-24.2v-11.2
						C923-320.4,938.7-304.6,938.7-285.3z"/>
				</g>
				<g>
				</g>
			</g>
		</g>
		<line class="st6" x1="698.7" y1="472.1" x2="686.3" y2="454.4"/>
		<text transform="matrix(1 0 0 1 280.5673 416.0203)" class="st3 st12 st13 st14">R</text>
		<g>
			<g id="XMLID_3_">
				<g>
					<path class="st3" d="M911.1,324.4c17.7,5.2,28.2,25.3,25.3,48.9c-1,8.2-3.7,16.3-8.1,23.9c-8.7,14.9-19.3,27.3-27.7,36.6
						c-7.5,8.1-15.2,16.2-23.9,24.1c-2.3,2-4.2,2-5.3,1.7c-1.5-0.4-2.7-1.6-3.3-3.6l-0.1-0.2l-0.2-0.9c0.1-0.2,0.1-0.2,0.1-0.2
						c-1.1-4-2-7.9-2.9-11.8c-4.1-18.2-6.5-33.2-7.5-47.7c-0.6-7.3-0.9-15.8,0.2-24.6c1.6-13.3,7.4-25.3,16.1-34.3
						c8.7-9,19.1-13.6,29.6-13.1C906,323.3,908.6,323.7,911.1,324.4z M930.7,373c2.5-20.3-6.4-37.5-21.6-41.9
						c-2.2-0.6-4.3-1.1-6.7-1.1c-8.9-0.4-18.1,3.6-25.4,11.2c-7.3,7.5-12.3,18-13.7,29.3c-1.1,8.2-0.8,16.2-0.2,23
						c1,14,3.4,28.7,7.4,46.5c0.9,3.9,1.8,7.8,2.8,11.7c0.2,0,0.1,0.2,0.1,0.2l0,0.4c0.2,0,0.2-0.1,0.2-0.1
						c8.3-7.9,16-15.5,23.3-23.5c8-9,18.4-20.9,26.7-35.1C927.4,387,929.9,380.1,930.7,373z"/>
					<path class="st3" d="M909.1,331.1c15.2,4.5,24.1,21.6,21.6,41.9c-0.8,7-3.3,14-7.1,20.6c-8.3,14.2-18.6,26.1-26.7,35.1
						c-7.3,8-14.9,15.6-23.3,23.5c0,0-0.1,0.2-0.2,0.1l0-0.4c0,0,0.1-0.2-0.1-0.2c-0.9-3.9-1.8-7.8-2.8-11.7
						c-4-17.8-6.4-32.4-7.4-46.5c-0.5-6.8-0.9-14.8,0.2-23c1.4-11.3,6.4-21.8,13.7-29.3c7.3-7.6,16.4-11.6,25.4-11.2
						C904.8,330.1,906.9,330.5,909.1,331.1z M914.2,376.3c3.5-12.1-1.3-24.2-10.8-27c-9.5-2.8-20.2,4.8-23.7,16.9
						c-3.5,12.1,1.3,24.2,10.8,27C900,396,910.6,388.4,914.2,376.3z"/>
					<path class="st3" d="M903.3,349.2c9.5,2.8,14.4,14.9,10.8,27c-3.5,12.1-14.2,19.7-23.7,16.9c-9.5-2.8-14.4-14.9-10.8-27
						C883.2,354,893.8,346.4,903.3,349.2z M908.8,374.7c2.5-8.4-0.9-16.6-7.4-18.6c-6.6-1.9-13.8,3.2-16.3,11.6
						c-2.5,8.4,0.8,16.6,7.4,18.6C899.1,388.2,906.3,383.1,908.8,374.7z"/>
				</g>
				<g>
				</g>
			</g>
		</g>
		<path class="st15" d="M810.9,421.5"/>
		<path class="st16" d="M766.8,421.6c0,0,133.4,94.5,232.8,0.7"/>
	</g>
</g>
<g id="Layer_3" class="st0">
	<path class="st17" d="M917.5,315.1c-3.6,0-6.5-2.9-6.5-6.5c0-3.6,2.9-6.5,6.5-6.5l1,0c0,0,0,0,0,0c3.6,0,6.5,2.8,6.5,6.4
		c0,3.6-2.9,6.5-6.5,6.6L917.5,315.1C917.5,315.1,917.5,315.1,917.5,315.1z M887.6,313.7c-0.2,0-0.4,0-0.6,0l-1-0.1
		c-3.6-0.3-6.2-3.5-5.8-7.1s3.5-6.2,7.1-5.8l1,0.1c3.6,0.3,6.2,3.5,5.9,7.1C893.7,311.2,890.9,313.7,887.6,313.7z M948.5,313.4
		c-3.3,0-6.1-2.5-6.5-5.9c-0.4-3.6,2.2-6.8,5.8-7.1l1-0.1c3.6-0.4,6.8,2.2,7.1,5.8c0.4,3.6-2.2,6.8-5.8,7.1l-1,0.1
		C948.9,313.4,948.7,313.4,948.5,313.4z M856.9,309.2c-0.4,0-0.9,0-1.3-0.1l-1-0.2c-3.5-0.7-5.8-4.2-5-7.7s4.2-5.8,7.7-5l1,0.2
		c3.5,0.7,5.8,4.2,5.1,7.7C862.6,307.1,859.9,309.2,856.9,309.2z M979.2,309c-3.1,0-5.8-2.2-6.4-5.3c-0.7-3.5,1.6-6.9,5.2-7.6l1-0.2
		c3.5-0.7,6.9,1.6,7.6,5.1c0.7,3.5-1.6,6.9-5.1,7.6l-1,0.2C980,309,979.6,309,979.2,309z M1009.3,301.8c-2.8,0-5.4-1.8-6.2-4.7
		c-1-3.4,1-7.1,4.4-8.1l1-0.3c3.5-1,7.1,1,8.1,4.4c1,3.4-1,7.1-4.4,8.1l-1,0.3C1010.5,301.7,1009.9,301.8,1009.3,301.8z M827,301.2
		c-0.7,0-1.4-0.1-2.1-0.3l-1-0.3c-3.4-1.2-5.2-4.9-4-8.3c1.2-3.4,4.9-5.2,8.3-4l0.9,0.3c3.4,1.1,5.2,4.8,4.1,8.2
		C832.2,299.4,829.7,301.2,827,301.2z M1038.6,291.8c-2.6,0-5-1.6-6-4.1c-1.3-3.3,0.3-7.1,3.6-8.4l0.9-0.4c3.3-1.3,7.1,0.3,8.5,3.6
		c1.3,3.3-0.3,7.1-3.6,8.5l-0.9,0.4C1040.3,291.7,1039.4,291.8,1038.6,291.8z M798.3,289.3c-1,0-2-0.2-2.9-0.7l-0.9-0.5
		c-3.2-1.6-4.5-5.5-2.9-8.7c1.6-3.2,5.5-4.5,8.7-2.9l0.9,0.4c3.2,1.6,4.5,5.5,2.9,8.7C803,288,800.7,289.3,798.3,289.3z
		 M1066.8,278.8c-2.3,0-4.6-1.2-5.7-3.4c-1.7-3.2-0.5-7.1,2.7-8.8l0.9-0.5c3.2-1.7,7.1-0.5,8.8,2.7c1.7,3.2,0.5,7.1-2.7,8.8
		l-0.9,0.5C1068.9,278.6,1067.8,278.8,1066.8,278.8z M771.8,273.3c-1.3,0-2.6-0.4-3.8-1.2l-0.8-0.6c-2.9-2.1-3.6-6.2-1.5-9.1
		c2.1-2.9,6.2-3.6,9.1-1.5l0.8,0.6c2.9,2.1,3.6,6.1,1.5,9.1C775.8,272.4,773.8,273.3,771.8,273.3z M1093.2,262.6c-2,0-4-0.9-5.3-2.7
		c-2.1-2.9-1.4-7,1.5-9.1l0.8-0.6c2.9-2.1,7-1.4,9.1,1.5c2.1,2.9,1.4,7-1.5,9.1l-0.8,0.6C1095.8,262.2,1094.5,262.6,1093.2,262.6z
		 M748.3,253.2c-1.7,0-3.4-0.6-4.6-1.9l-0.7-0.7c-2.5-2.6-2.5-6.7,0.1-9.2c2.6-2.5,6.7-2.5,9.2,0.1l0.7,0.7c2.5,2.6,2.5,6.7-0.1,9.2
		C751.6,252.6,749.9,253.2,748.3,253.2z M1116.9,242.7c-1.7,0-3.3-0.6-4.6-1.9c-2.5-2.5-2.5-6.7,0-9.2l0.7-0.7
		c2.5-2.5,6.6-2.6,9.2,0c2.5,2.5,2.6,6.6,0,9.2l-0.7,0.7C1120.2,242.1,1118.6,242.7,1116.9,242.7z M728.6,229.4
		c-2.1,0-4.1-1-5.4-2.8l-0.6-0.9c-2-3-1.2-7,1.7-9c3-2,7-1.2,9,1.7l0.5,0.8c2,3,1.3,7-1.7,9C731.1,229,729.9,229.4,728.6,229.4z
		 M1136.6,218.9c-1.2,0-2.5-0.3-3.6-1.1c-3-2-3.8-6-1.9-9l0.5-0.8c1.9-3,6-3.9,9-2c3,1.9,3.9,6,2,9l-0.6,0.9
		C1140.8,217.8,1138.7,218.9,1136.6,218.9z M712.5,202.9c-2.3,0-4.6-1.2-5.7-3.4l-0.5-0.9c-1.7-3.2-0.5-7.1,2.7-8.8
		c3.2-1.7,7.1-0.5,8.8,2.7l0.5,0.9c1.7,3.2,0.5,7.1-2.7,8.8C714.6,202.6,713.5,202.9,712.5,202.9z M1149.9,191c-0.7,0-1.3-0.1-2-0.3
		c-3.4-1.1-5.3-4.7-4.2-8.2l0.3-0.9c1.1-3.4,4.7-5.4,8.1-4.3c3.4,1.1,5.4,4.7,4.3,8.1l-0.3,1C1155.3,189.3,1152.7,191,1149.9,191z
		 M699.6,174.7c-2.6,0-5.1-1.6-6.1-4.2l-0.4-1c-1.2-3.4,0.5-7.1,3.8-8.4c3.4-1.2,7.1,0.5,8.4,3.8l0.3,0.9c1.3,3.4-0.4,7.1-3.8,8.4
		C701.2,174.6,700.4,174.7,699.6,174.7z M1154.7,160.6c-3.6,0-6.5-2.9-6.5-6.5c0-0.3,0-0.9,0-1.2c0-3.6,2.8-5.8,6.4-6.8
		c0,0,0.1,0,0.1,0c3.6,0,6.5,3.1,6.5,6.7c0,0.4,0,0.8,0,1.2C1161.2,157.5,1158.2,160.6,1154.7,160.6z M692.6,83.6
		c-0.6,0-1.2-0.1-1.8-0.2c-3.5-1-5.5-4.6-4.5-8l0.3-1c1-3.4,4.6-5.4,8.1-4.4c3.4,1,5.4,4.6,4.4,8.1l-0.3,0.9
		C698.1,81.7,695.5,83.6,692.6,83.6z M705,55.3c-1.2,0-2.3-0.3-3.4-1c-3.1-1.9-4-5.9-2.1-8.9l0.6-0.9c1.9-3,5.9-3.9,9-2
		c3,1.9,3.9,5.9,2,9l-0.5,0.8C709.3,54.2,707.2,55.3,705,55.3z M886.2,50.9c-2.3,0-4.5-1.2-5.7-3.3c-0.2-0.3-0.3-0.5-0.5-0.8
		c-1.8-3.1-0.7-7.1,2.4-8.9c3.1-1.8,7.1-0.7,8.9,2.4c0.2,0.3,0.4,0.6,0.5,0.9c1.8,3.1,0.7,7.1-2.5,8.9
		C888.4,50.6,887.3,50.9,886.2,50.9z M724.8,31.6c-1.8,0-3.5-0.7-4.8-2.1c-2.4-2.7-2.2-6.8,0.5-9.2l0.8-0.7c2.7-2.4,6.8-2.2,9.2,0.5
		c2.4,2.7,2.1,6.8-0.5,9.2l-0.7,0.6C727.9,31,726.4,31.6,724.8,31.6z M867.1,26.6c-1.6,0-3.1-0.6-4.4-1.7l-0.7-0.6
		c-2.7-2.4-2.9-6.5-0.5-9.2c2.4-2.7,6.5-2.9,9.2-0.5c0.3,0.2,0.5,0.5,0.8,0.7c2.6,2.4,2.8,6.5,0.4,9.2
		C870.6,25.9,868.9,26.6,867.1,26.6z M750.3,14.1c-2.4,0-4.7-1.3-5.8-3.6c-1.6-3.2-0.3-7.1,2.9-8.7l1-0.5c3.2-1.6,7.1-0.3,8.7,3
		c1.6,3.2,0.3,7.1-3,8.7l-0.8,0.4C752.3,13.9,751.3,14.1,750.3,14.1z M841.3,9.8c-0.9,0-1.7-0.2-2.6-0.5c-0.3-0.1-0.6-0.2-0.8-0.4
		c-3.3-1.4-4.9-5.2-3.5-8.5c1.4-3.3,5.2-4.9,8.5-3.5c0.3,0.1,0.7,0.3,1,0.4c3.3,1.4,4.8,5.3,3.4,8.6C846.2,8.3,843.8,9.8,841.3,9.8z
		 M779.5,4c-3,0-5.7-2.1-6.4-5.2c-0.7-3.5,1.6-6.9,5.1-7.7l1-0.2c3.5-0.7,6.9,1.6,7.6,5.1c0.7,3.5-1.6,6.9-5.1,7.6l-0.9,0.2
		C780.4,3.9,779.9,4,779.5,4z M811.4,2.2c-0.2,0-0.4,0-0.6,0l-0.9-0.1c-3.6-0.3-6.2-3.4-5.9-7s3.4-6.2,7-5.9c0.4,0,0.7,0.1,1.1,0.1
		c3.6,0.3,6.2,3.5,5.9,7.1C817.5-0.3,814.7,2.2,811.4,2.2z"/>
</g>
<g id="Layer_2">
	<path class="st18" d="M355.4,94.7c-2.1-1.6-4.3-2.8-6.7-3.7c-2.4-0.9-4.9-1.4-7.5-1.4c-2.2,0-4.3,0.7-6.3,2.1
		c-2,1.4-3.7,3.1-5.1,5.1c-1.4,2-2.6,4.3-3.4,6.8c-0.9,2.5-1.3,4.8-1.3,6.9v53.6H317V82.7h8.1v11c1.7-3,3.9-5.8,6.7-8.3
		c2.8-2.5,5.8-3.7,9.1-3.7c4.1,0,7.4,0.5,10,1.4c2.6,0.9,5.6,2.6,8.9,4.9L355.4,94.7z"/>
	<path class="st18" d="M368.3,121.7c0,11,3,19.8,8.9,26.2c6.2,6.6,14.6,9.9,25.4,9.9c5.5,0,10.5-0.9,15-2.8
		c5.6-2.4,10.7-7.2,15.2-14.4l7.3,3.3c-5.1,9.7-13,16.3-23.6,19.7c-4.1,1.3-8.7,2-13.8,2c-12.2,0-22.3-4-30.1-12
		c-8-8-12-18.1-12-30.1c0-12.2,3.9-22.3,11.8-30.1c8-8,18.1-12,30.3-12c12.1,0,22.1,3.7,29.9,11.2c8,7.5,12,17.2,12,29.2H368.3z
		 M423.9,95.9c-6.2-4.5-13.3-6.7-21.3-6.7c-16.8,0-27.8,8.3-33.1,24.8h66C434.2,106.5,430.3,100.5,423.9,95.9z"/>
	<path class="st18" d="M499.9,158.9c-5.3,4.5-11.6,6.7-18.9,6.7c-12.6,0-22.1-5.7-28.4-17.1l6.9-4.1c2.2,4.1,4.9,7.2,8.1,9.5
		c3.3,2.5,7.7,3.7,13.4,3.7c12.3,0,18.5-5.3,18.5-15.8c0-4.6-2.2-8.6-6.5-12c-1.3-0.8-3.2-1.7-5.6-2.7c-2.4-1-5.4-2.1-9-3.4
		c-6.6-2.4-11.3-4.7-14.2-7.1c-4.2-3.4-6.3-8.3-6.3-14.8c0-5.5,2.1-10.2,6.3-14.2c4.1-4.1,9.4-6.1,16-6.1c9.1,0,16.7,3.2,23.1,9.5
		l-5.9,5.1c-4.5-4.5-10.2-6.7-17.1-6.7c-9.5,0-14.2,4.1-14.2,12.4c0,3.7,1.4,6.7,4.3,9.1c2.4,1.8,6.1,3.6,11.2,5.3
		c4.5,1.6,8.1,3.1,11,4.4c2.9,1.4,5.1,2.6,6.5,3.6c5.6,4.3,8.5,10.2,8.5,17.5C507.6,148.9,505,154.6,499.9,158.9z"/>
	<path class="st18" d="M525.1,121.7c0,11,3,19.8,8.9,26.2c6.2,6.6,14.6,9.9,25.4,9.9c5.5,0,10.5-0.9,15-2.8
		c5.6-2.4,10.7-7.2,15.2-14.4l7.3,3.3c-5.1,9.7-13,16.3-23.6,19.7c-4.1,1.3-8.7,2-13.8,2c-12.2,0-22.3-4-30.1-12
		c-8-8-12-18.1-12-30.1c0-12.2,3.9-22.3,11.8-30.1c8-8,18.1-12,30.3-12c12.1,0,22.1,3.7,29.9,11.2c8,7.5,12,17.2,12,29.2H525.1z
		 M580.7,95.9c-6.2-4.5-13.3-6.7-21.3-6.7c-16.8,0-27.8,8.3-33.1,24.8h66C591,106.5,587.1,100.5,580.7,95.9z"/>
	<path class="st18" d="M652.7,94.7c-2.1-1.6-4.3-2.8-6.7-3.7c-2.4-0.9-4.9-1.4-7.5-1.4c-2.2,0-4.3,0.7-6.3,2.1
		c-2,1.4-3.7,3.1-5.1,5.1c-1.4,2-2.6,4.3-3.4,6.8c-0.9,2.5-1.3,4.8-1.3,6.9v53.6h-8.1V82.7h8.1v11c1.7-3,3.9-5.8,6.7-8.3
		c2.8-2.5,5.8-3.7,9.1-3.7c4.1,0,7.4,0.5,10,1.4c2.6,0.9,5.6,2.6,8.9,4.9L652.7,94.7z"/>
	<path class="st19" d="M668.3,167.6l-38.4-84.9h8.7l29.6,64.8l29.8-64.8h9.1L668.3,167.6z"/>
	<path class="st18" d="M820.7,164.1v-14c-8.5,10.2-19.4,15.4-32.5,15.4c-11.8,0-21.7-4-29.8-12c-8.1-8.1-12.2-18.1-12.2-29.9
		c0-11.8,4-21.7,12-29.8c8.1-8.1,18.1-12.2,29.9-12.2c13,0,23.8,5.1,32.5,15.4V82.7h8.1v81.4H820.7z M812.2,99.4
		c-6.7-6.7-14.7-10-24-10c-9.5,0-17.5,3.3-24,9.9c-6.7,6.7-10,14.8-10,24.2c0,9.3,3.4,17.3,10,24c6.7,6.7,14.7,10,24,10
		c9.5,0,17.5-3.3,24-9.9c6.7-6.7,10-14.8,10-24.2C822.3,114.2,818.9,106.1,812.2,99.4z"/>
	<path class="st18" d="M859.9,90.8v73.3h-8.1V90.8h-11v-8.1h11V47h8.1v35.7h18.9v8.1H859.9z"/>
	<path class="st18" d="M894.6,68.1c-1.4,0-3-0.6-4.5-1.8c-1.2-1.2-1.8-2.8-2-4.7c0-3.5,2.2-5.7,6.5-6.5c3.3,0,5.4,2.2,6.5,6.5
		C901.1,65.9,898.9,68.1,894.6,68.1z M890.4,164.1V82.7h8.1v81.4H890.4z"/>
	<path class="st19" d="M936.5,153.2c-8.1,8.1-18.1,12.2-29.9,12.2c-11.8,0-21.7-4-29.8-12c-8.1-8.1-12.2-18.1-12.2-29.9
		c0-11.7,4.1-21.6,12.2-29.8c8-8.3,17.9-12.4,29.8-12.4c11.7,0,21.6,4.1,29.8,12.2c8.1,8.1,12.2,18.1,12.2,29.9
		C948.5,135.3,944.5,145.2,936.5,153.2z M930.8,99.2c-6.6-6.7-14.6-10-24.2-10c-9.2,0-17.1,3.4-23.8,10.2
		c-6.8,6.8-10.2,14.8-10.2,24c0,9.3,3.4,17.3,10,24c6.7,6.7,14.7,10,24,10c9.5,0,17.5-3.3,24-9.9c6.7-6.7,10-14.8,10-24.2
		C940.6,113.9,937.3,105.8,930.8,99.2z"/>
	<path class="st18" d="M1099.1,164.1v-48.7c0-17.2-7.8-25.8-23.2-25.8c-7.6,0-13.4,2.2-17.3,6.7c-4.1,4.5-6.1,10.6-6.1,18.3v49.5
		h-8.1V82.7h8.1v9.9c3.7-7.2,11.5-10.8,23.4-10.8c10.1,0,17.9,2.9,23.2,8.7c5.4,5.8,8.1,13.9,8.1,24.2v49.5H1099.1z"/>
	<path class="st18" d="M1169,158.9c-5.3,4.5-11.6,6.7-18.9,6.7c-12.6,0-22.1-5.7-28.4-17.1l6.9-4.1c2.2,4.1,4.9,7.2,8.1,9.5
		c3.3,2.5,7.7,3.7,13.4,3.7c12.3,0,18.5-5.3,18.5-15.8c0-4.6-2.2-8.6-6.5-12c-1.3-0.8-3.2-1.7-5.6-2.7c-2.4-1-5.4-2.1-9-3.4
		c-6.6-2.4-11.3-4.7-14.2-7.1c-4.2-3.4-6.3-8.3-6.3-14.8c0-5.5,2.1-10.2,6.3-14.2c4.1-4.1,9.4-6.1,16-6.1c9.1,0,16.7,3.2,23.1,9.5
		l-5.9,5.1c-4.5-4.5-10.2-6.7-17.1-6.7c-9.5,0-14.2,4.1-14.2,12.4c0,3.7,1.4,6.7,4.3,9.1c2.4,1.8,6.1,3.6,11.2,5.3
		c4.5,1.6,8.1,3.1,11,4.4c2.9,1.4,5.1,2.6,6.5,3.6c5.6,4.3,8.5,10.2,8.5,17.5C1176.7,148.9,1174.1,154.6,1169,158.9z"/>
	<path class="st19" d="M1108.7,164.1V18.3h7.9v145.8H1108.7z"/>
	<path class="st19" d="M1179.4,164.1l-42.6-42.4l-4.5,4.5v37.8h-8.1V18.3h8.1v96.4l35.3-35.1h11.4l-36.8,36.6l47.9,47.9H1179.4z"/>
	<g>
		<g>
			<g>
				<path class="st20" d="M970.6,64.2c-29.5,0-53.4,24-53.4,53.4c0,10.9,3.2,21.3,9.4,30.2c5.7,8.2,13.4,14.7,22.5,18.7l17.4,30.7
					c0.9,1.5,2.5,2.4,4.2,2.4s3.3-0.9,4.2-2.4l17.4-30.7c9.1-4,16.8-10.4,22.5-18.7c6.1-8.9,9.4-19.4,9.4-30.2
					C1024,88.1,1000.1,64.2,970.6,64.2z M987,158.3c-1,0.4-1.8,1.1-2.4,2.1l-14,24.8l-14-24.8c-0.5-0.9-1.4-1.7-2.4-2.1
					c-16.7-6.7-27.4-22.7-27.4-40.7c0-24.2,19.7-43.8,43.8-43.8s43.8,19.7,43.8,43.8C1014.4,135.6,1003.6,151.5,987,158.3z"/>
				<path class="st20" d="M970.6,97.1c-11.1,0-20.2,9.1-20.2,20.2s9.1,20.2,20.2,20.2c11.1,0,20.2-9.1,20.2-20.2
					S981.7,97.1,970.6,97.1z M970.6,127.9c-5.8,0-10.6-4.7-10.6-10.6s4.7-10.6,10.6-10.6c5.8,0,10.6,4.7,10.6,10.6
					S976.4,127.9,970.6,127.9z"/>
			</g>
		</g>
		<path class="st21" d="M924.7,190.7c0,0-0.1,0-0.1,0c-4.4,1.6-6.8,3.5-6.8,5.5c0,6.1,23.7,11.1,53,11.1s53-5,53-11.1
			c0-2-2.5-3.8-6.8-5.5"/>
		<path class="st22" d="M1069.9,190.8c4.8,2.8,7.4,5.9,7.4,9.2c0,13.6-46.8,24.7-104.4,24.7c-57.7,0-104.4-11-104.4-24.7
			c0-3.2,2.6-6.3,7.4-9.2"/>
	</g>
	<g>
		<path class="st18" d="M705.6,162.3l-36.2-79.9h8.2l27.8,61l28-61h8.5L705.6,162.3z"/>
	</g>
	<g class="st0">
		<g id="Shape_392_3_" class="st2">
			<g>
				<polygon class="st23" points="736.3,70.7 690.9,87.4 645.5,70.8 690.8,161.5 				"/>
			</g>
		</g>
	</g>
</g>
<g id="Layer_4">
	<radialGradient id="SVGID_1_" cx="177.6796" cy="174.5634" r="99.423" gradientUnits="userSpaceOnUse">
		<stop  offset="0" style="stop-color:#FFF33B"/>
		<stop  offset="6.642572e-02" style="stop-color:#FEE72E"/>
		<stop  offset="0.1939" style="stop-color:#FED51B"/>
		<stop  offset="0.3253" style="stop-color:#FDCA10"/>
		<stop  offset="0.4652" style="stop-color:#FDC70C"/>
		<stop  offset="1" style="stop-color:#FF772A"/>
	</radialGradient>
	<path class="st24" d="M116.9,81.4H93.2c-0.9,0-1.7,0.3-2.3,1c-0.6,0.6-1,1.4-1,2.3v25.4H70.3V84.6c0-0.9-0.3-1.7-1-2.3
		c-0.6-0.6-1.4-1-2.3-1H43.3c-0.9,0-1.7,0.3-2.3,1c-0.6,0.6-1,1.4-1,2.3v78.2c0,1,0.3,1.8,1,2.4c0.6,0.6,1.4,0.9,2.3,0.9H67
		c0.9,0,1.7-0.3,2.3-1c0.6-0.6,1-1.4,1-2.3v-26.1h19.6v26.1c0,0.9,0.3,1.7,1,2.3c0.6,0.6,1.4,1,2.3,1h23.7c0.9,0,1.7-0.3,2.3-1
		c0.6-0.6,1-1.4,1-2.3V84.6c0-0.9-0.3-1.7-1-2.3C118.5,81.7,117.8,81.4,116.9,81.4z"/>
	<radialGradient id="SVGID_2_" cx="177.6796" cy="174.5634" r="99.423" gradientUnits="userSpaceOnUse">
		<stop  offset="0" style="stop-color:#FFF33B"/>
		<stop  offset="6.642572e-02" style="stop-color:#FEE72E"/>
		<stop  offset="0.1939" style="stop-color:#FED51B"/>
		<stop  offset="0.3253" style="stop-color:#FDCA10"/>
		<stop  offset="0.4652" style="stop-color:#FDC70C"/>
		<stop  offset="1" style="stop-color:#FF772A"/>
	</radialGradient>
	<path class="st25" d="M299.9,82.3c-0.6-0.6-1.4-1-2.3-1h-70.9c-0.9,0-1.7,0.3-2.3,1c-0.6,0.6-1,1.4-1,2.3v19.5c0,0.9,0.3,1.7,1,2.3
		c0.6,0.6,1.4,1,2.3,1h20.1v55.4c0,0.9,0.3,1.7,1,2.3c0.6,0.6,1.4,1,2.3,1h24.2c0.9,0,1.7-0.3,2.3-1c0.6-0.6,1-1.4,1-2.3v-55.4h20.1
		c0.9,0,1.7-0.3,2.3-1c0.6-0.6,1-1.4,1-2.3V84.6C300.8,83.7,300.5,83,299.9,82.3z"/>
	<radialGradient id="SVGID_3_" cx="177.6759" cy="179.5648" r="99.4252" gradientUnits="userSpaceOnUse">
		<stop  offset="0" style="stop-color:#FFF33B"/>
		<stop  offset="6.642572e-02" style="stop-color:#FEE72E"/>
		<stop  offset="0.1939" style="stop-color:#FED51B"/>
		<stop  offset="0.3253" style="stop-color:#FDCA10"/>
		<stop  offset="0.4652" style="stop-color:#FDC70C"/>
		<stop  offset="1" style="stop-color:#FF772A"/>
	</radialGradient>
	<path class="st26" d="M236.1,58.3c-23.9-4.8-39.6,15.2-42.1,28.1c0.6-9.9-1.7-17.3-7.9-26.4c-17.5-25.6,7.5-42.9,7.5-42.9
		c-1.7-3.4-39.3,8-32.5,41c4.4,21.4-5.6,30.5-5.6,30.5c11.8-43.7-23.5-48.7-23.5-48.7s23.5,15.1,6.7,38.7c-5.5,7.7-8.1,17.3-8.9,27
		c-0.2,1.8-0.2,3.7-0.3,5.5c-0.2,8.1,0.7,16,1.9,22.7c0.5,2.9,1.1,5.7,1.7,8.1c4.5,14,15.8,24.9,30.1,28.7c3.3,0.5,6.8,0.8,10.6,0.8
		c4.9,0,9.3-0.4,13.4-1.3c0,0,0,0,0,0c13.5-4.2,24.2-14.9,28.4-28.4c0-0.1,0-0.1,0-0.1c0.2-0.8,0.4-1.6,0.7-2.4c0,0,0,0,0,0
		c3.5-13.3,4.7-29.5,1.2-40.3C205.6,61.3,236.1,58.3,236.1,58.3z M194.5,133.5C194.5,133.5,194.5,133.5,194.5,133.5
		c-0.1,0.4-0.2,0.8-0.3,1.2c0,0,0,0,0,0.1c-2,6.5-7.1,11.6-13.6,13.6c0,0,0,0,0,0c-2,0.6-4,0.9-6.2,0.9c-1.8,0-3.6-0.2-5.3-0.7
		c-6.8-1.8-12.3-7.1-14.5-13.8c-0.4-1.2-0.7-2.5-0.8-3.9c-0.1-0.8-0.2-1.6-0.2-2.4c0-11.5,9.3-20.8,20.8-20.8
		c11.5,0,20.8,9.3,20.8,20.8C195.1,130.3,194.9,131.9,194.5,133.5z"/>
	<radialGradient id="SVGID_4_" cx="177.6796" cy="179.5634" r="99.423" gradientUnits="userSpaceOnUse">
		<stop  offset="0" style="stop-color:#FFF33B"/>
		<stop  offset="6.642572e-02" style="stop-color:#FEE72E"/>
		<stop  offset="0.1939" style="stop-color:#FED51B"/>
		<stop  offset="0.3253" style="stop-color:#FDCA10"/>
		<stop  offset="0.4652" style="stop-color:#FDC70C"/>
		<stop  offset="1" style="stop-color:#FF772A"/>
	</radialGradient>
	<path class="st27" d="M191.8,57c-6.1-20.7,14-34.1,14-34.1C171.8,32.9,191.8,57,191.8,57z"/>
	<radialGradient id="SVGID_5_" cx="177.6796" cy="179.5634" r="99.423" gradientUnits="userSpaceOnUse">
		<stop  offset="0" style="stop-color:#FFF33B"/>
		<stop  offset="6.642572e-02" style="stop-color:#FEE72E"/>
		<stop  offset="0.1939" style="stop-color:#FED51B"/>
		<stop  offset="0.3253" style="stop-color:#FDCA10"/>
		<stop  offset="0.4652" style="stop-color:#FDC70C"/>
		<stop  offset="1" style="stop-color:#FF772A"/>
	</radialGradient>
	<path class="st28" d="M196.5,67.9l-0.6,5.8c4.5-15.1,33.4-25.2,33.4-25.2C202.5,38.8,196.5,67.9,196.5,67.9z"/>
</g>
</svg>
